<svg width="68" height="69" viewBox="0 0 68 69" fill="none" xmlns="http://www.w3.org/2000/svg">
<path d="M0 10.8458C0 5.06807 4.68379 0.384277 10.4615 0.384277H52.3077C58.0854 0.384277 62.7692 5.06807 62.7692 10.8458V52.692C62.7692 58.4697 58.0854 63.1535 52.3077 63.1535H10.4615C4.68379 63.1535 0 58.4697 0 52.692V10.8458Z" fill="#FFCA2C"/>
<g filter="url(#filter0_biii_108_4507)">
<path d="M5.23071 16.0765C5.23071 10.2988 9.9145 5.61499 15.6923 5.61499H57.5384C63.3162 5.61499 67.9999 10.2988 67.9999 16.0765V57.9227C67.9999 63.7004 63.3162 68.3842 57.5384 68.3842H15.6923C9.91451 68.3842 5.23071 63.7004 5.23071 57.9227V16.0765Z" fill="#FFA800" fill-opacity="0.14"/>
</g>
<path d="M25.4881 23.7551L29.3213 23.7837C27.9196 25.1854 27.09 26.9876 26.804 29.0186L25.3451 28.99C23.7718 28.9328 22.5417 27.7599 22.5703 26.3296C22.5703 24.8708 23.8576 23.7551 25.4881 23.7551ZM36.9876 45.8388C37.2451 46.4681 38.9614 49.958 38.9614 49.958H34.0698C34.0698 49.958 35.6431 46.6683 35.9864 45.8388C36.2725 45.2095 36.7016 45.1808 36.9876 45.8388Z" fill="#F9F9F9"/>
<path d="M51.1762 32.3941C50.8615 33.6242 49.6029 34.5395 48.0581 34.5395H46.6279C46.542 34.5681 46.4848 34.6254 46.5134 34.7112V49.958H43.9103L38.9043 39.6028C39.4192 39.0306 39.7339 38.2583 39.7339 37.4287C39.7339 36.0556 38.9329 34.8256 37.7315 34.3393V32.9376C37.7315 32.3369 37.2166 31.9078 36.6158 31.9078H36.5586C35.9579 31.9078 35.443 32.4227 35.443 33.0234V34.3393C34.1271 34.7684 33.1545 35.9984 33.1545 37.4859C33.1545 38.3441 33.4978 39.1451 34.0413 39.7172L29.1783 49.9867H24.9161C23.2856 49.9867 21.9983 48.6708 21.9983 47.0403V27.1879C21.9983 27.1879 21.9983 27.0162 22.0269 27.1879C22.2557 28.5609 23.4572 29.6193 24.9161 29.648H46.9139C46.8853 29.648 51.0904 29.2761 51.1762 32.3941Z" fill="#F9F9F9"/>
<path d="M36.4155 35.7981C37.3023 35.7981 38.046 36.5418 38.0174 37.4572C38.0174 38.344 37.2737 39.0877 36.3583 39.0591C35.4715 39.0591 34.7563 38.3154 34.7563 37.4286C34.7563 36.9995 34.928 36.599 35.2426 36.2844C35.5859 35.9697 35.9864 35.7981 36.4155 35.7981ZM37.0734 34.8541V33.1377C37.0734 32.9375 36.9876 32.7658 36.816 32.68C36.5585 32.537 36.2438 32.6228 36.1008 32.8803C36.0436 32.9661 36.015 33.0519 36.0436 33.1663V34.8255C34.6133 35.0543 33.6121 36.3988 33.841 37.8577V37.8863C33.9554 38.5728 34.3273 39.2021 34.8994 39.6026L28.8063 52.6755C28.5775 53.1332 28.6061 53.7053 28.9208 54.1344C29.3785 54.7923 30.2652 54.9639 30.9232 54.5062C31.152 54.3632 31.3237 54.1344 31.4381 53.9055L35.4715 45.1521C35.7289 44.58 36.4155 44.3226 37.0162 44.6086C37.245 44.7231 37.4453 44.9233 37.5597 45.1521L41.7075 53.8197C42.0508 54.5348 42.909 54.8209 43.6241 54.4776C44.3393 54.1344 44.6253 53.2762 44.2821 52.561L38.046 39.5454C39.1902 38.63 39.3905 36.9423 38.4751 35.7981C38.1318 35.3404 37.6455 35.0257 37.0734 34.8541ZM41.0782 22.3819H41.0496L42.5657 19.7502C42.6515 19.6072 42.5943 19.4356 42.4799 19.3211C42.3369 19.2639 42.1938 19.2925 42.108 19.4069L40.5061 22.1245C38.0174 21.0089 35.1568 21.0089 32.6395 22.1245L31.0948 19.4356C31.0376 19.3497 30.9232 19.2639 30.8087 19.2639C30.6943 19.2639 30.5799 19.3211 30.5227 19.4356C30.4655 19.55 30.4655 19.6644 30.5227 19.7502L32.0674 22.3819C29.5501 23.7836 27.891 26.1865 27.4905 28.9899H45.741C45.3119 26.1865 43.5955 23.7836 41.0782 22.3819ZM32.9542 26.7014L32.8398 26.8158C32.6967 26.9589 32.4965 27.0447 32.2962 27.0447H32.3249C31.8958 27.0447 31.5525 26.7014 31.5525 26.3009V26.2723C31.5525 26.0721 31.6383 25.8719 31.7813 25.7288C32.0388 25.4142 32.5251 25.3569 32.8398 25.6144C33.2116 25.8719 33.2402 26.3581 32.9542 26.7014ZM40.7922 26.9875C40.3631 27.0161 40.0198 26.6728 40.0198 26.2437V26.2151C40.0198 26.0149 40.1056 25.8146 40.2487 25.6716C40.5347 25.3856 41.021 25.3856 41.3357 25.6716C41.4787 25.8146 41.5645 26.0149 41.5645 26.2151C41.5645 26.6728 41.2212 26.9875 40.7922 26.9875ZM48.5443 35.2831H47.3429C47.2857 35.3118 47.2285 35.369 47.2285 35.4548V54.4776C47.2285 54.5634 47.2857 54.6207 47.3715 54.6207H48.6301C50.089 54.6207 51.2619 53.4192 51.2619 51.9889C51.2619 51.9889 51.2333 34.5108 51.2619 33.8529C51.2905 33.1663 51.1188 33.6526 51.0616 33.7956C50.6325 34.711 49.6886 35.3118 48.6015 35.3118H48.5443V35.2831Z" fill="#F9F9F9"/>
<path d="M36.4156 38.344C36.9212 38.344 37.331 37.9341 37.331 37.4286C37.331 36.923 36.9212 36.5132 36.4156 36.5132C35.9101 36.5132 35.5002 36.923 35.5002 37.4286C35.5002 37.9341 35.9101 38.344 36.4156 38.344Z" fill="#F9F9F9"/>
<defs>
<filter id="filter0_biii_108_4507" x="-13.077" y="-12.6927" width="99.3847" height="99.3847" filterUnits="userSpaceOnUse" color-interpolation-filters="sRGB">
<feFlood flood-opacity="0" result="BackgroundImageFix"/>
<feGaussianBlur in="BackgroundImageFix" stdDeviation="9.15385"/>
<feComposite in2="SourceAlpha" operator="in" result="effect1_backgroundBlur_108_4507"/>
<feBlend mode="normal" in="SourceGraphic" in2="effect1_backgroundBlur_108_4507" result="shape"/>
<feColorMatrix in="SourceAlpha" type="matrix" values="0 0 0 0 0 0 0 0 0 0 0 0 0 0 0 0 0 0 127 0" result="hardAlpha"/>
<feOffset dy="3.92308"/>
<feGaussianBlur stdDeviation="1.96154"/>
<feComposite in2="hardAlpha" operator="arithmetic" k2="-1" k3="1"/>
<feColorMatrix type="matrix" values="0 0 0 0 1 0 0 0 0 1 0 0 0 0 1 0 0 0 0.3 0"/>
<feBlend mode="normal" in2="shape" result="effect2_innerShadow_108_4507"/>
<feColorMatrix in="SourceAlpha" type="matrix" values="0 0 0 0 0 0 0 0 0 0 0 0 0 0 0 0 0 0 127 0" result="hardAlpha"/>
<feOffset dy="5.23077"/>
<feGaussianBlur stdDeviation="2.61538"/>
<feComposite in2="hardAlpha" operator="arithmetic" k2="-1" k3="1"/>
<feColorMatrix type="matrix" values="0 0 0 0 1 0 0 0 0 1 0 0 0 0 1 0 0 0 0.25 0"/>
<feBlend mode="normal" in2="effect2_innerShadow_108_4507" result="effect3_innerShadow_108_4507"/>
<feColorMatrix in="SourceAlpha" type="matrix" values="0 0 0 0 0 0 0 0 0 0 0 0 0 0 0 0 0 0 127 0" result="hardAlpha"/>
<feOffset dy="1.30769"/>
<feGaussianBlur stdDeviation="0.653846"/>
<feComposite in2="hardAlpha" operator="arithmetic" k2="-1" k3="1"/>
<feColorMatrix type="matrix" values="0 0 0 0 1 0 0 0 0 1 0 0 0 0 1 0 0 0 0.35 0"/>
<feBlend mode="normal" in2="effect3_innerShadow_108_4507" result="effect4_innerShadow_108_4507"/>
</filter>
</defs>
</svg>
