<svg width="197" height="197" viewBox="0 0 197 197" fill="none" xmlns="http://www.w3.org/2000/svg">
<g clip-path="url(#clip0_583_530)">
<g opacity="0.05">
<path fill-rule="evenodd" clip-rule="evenodd" d="M127.873 78.0944L139.033 83.2989L126.022 111.201C119.593 124.99 119.273 128.436 123.796 130.545C131.075 133.939 136.562 132.307 142.764 119.008C156.528 89.4908 148.777 67.4606 118.939 53.5467C99.6064 44.535 76.6706 48.9891 62.1167 64.5815C47.5627 80.1739 44.6973 103.362 55.018 122.028C65.3386 140.694 86.5002 150.597 107.444 146.563L109.774 158.655C83.5937 163.698 57.1416 151.319 44.2408 127.987C31.3401 104.654 34.9217 75.6691 53.1142 56.1786C71.3067 36.6881 99.9764 31.1205 124.142 42.3855C160.2 59.1993 170.538 88.5843 153.925 124.212C144.7 143.994 131.756 147.844 118.592 141.706C111.093 138.209 107.928 133.79 108.075 127.324C100.811 129.807 92.6151 129.593 85.1087 126.093C69.6987 118.907 63.0316 100.59 70.2174 85.1796C77.4033 69.7696 95.7208 63.1026 111.131 70.2884C117.412 73.2175 122.241 77.9961 125.271 83.6735L127.873 78.0944ZM114.862 105.997C110.551 115.243 99.5601 119.243 90.3141 114.931C81.068 110.62 77.0678 99.6292 81.3793 90.3832C85.6908 81.1372 96.6813 77.137 105.927 81.4485C115.173 85.76 119.174 96.7505 114.862 105.997Z" fill="#057EF6"/>
</g>
</g>
<defs>
<clipPath id="clip0_583_530">
<rect width="196.384" height="196.384" fill="white" transform="translate(0.384277)"/>
</clipPath>
</defs>
</svg>
