<svg width="198" height="197" viewBox="0 0 198 197" fill="none" xmlns="http://www.w3.org/2000/svg">
<g clip-path="url(#clip0_583_536)">
<g opacity="0.07">
<path fill-rule="evenodd" clip-rule="evenodd" d="M110.766 42.7635L133.087 53.1724C139.251 56.0467 141.918 63.3737 139.044 69.5378L136.442 75.1186L158.764 85.5279C164.928 88.4022 167.595 95.7293 164.721 101.893L136.097 163.278C133.222 169.442 125.895 172.109 119.731 169.235L30.4437 127.599C24.2797 124.725 21.6129 117.398 24.4872 111.234L53.1116 49.849C55.9859 43.685 63.3129 41.0182 69.4769 43.8925L91.7978 54.3009L94.4002 48.72C97.2745 42.556 104.602 39.8892 110.766 42.7635ZM35.6475 116.439L46.0572 94.1156L85.1209 112.331L82.5183 117.913L93.6792 123.117L96.2818 117.536L135.345 135.751L124.935 158.075L35.6475 116.439ZM140.549 124.59L51.2616 82.9547L64.2719 55.054L153.559 96.6895L140.549 124.59ZM127.884 64.334L125.282 69.9144L102.96 59.5056L105.562 53.9251L127.884 64.334Z" fill="#057EF6"/>
</g>
</g>
<defs>
<clipPath id="clip0_583_536">
<rect width="196.384" height="196.384" fill="white" transform="translate(0.768555)"/>
</clipPath>
</defs>
</svg>
