<svg width="159" height="198" viewBox="0 0 159 198" fill="none" xmlns="http://www.w3.org/2000/svg">
<g opacity="0.07">
<path fill-rule="evenodd" clip-rule="evenodd" d="M122.396 178.355L38.6893 139.322C29.4433 135.01 25.4431 124.02 29.7545 114.774L66.1855 36.6472C70.497 27.4011 81.4876 23.4009 90.7336 27.7124L174.441 66.7456L132.805 156.033C129.723 154.596 126.06 155.929 124.622 159.011C123.185 162.093 124.519 165.757 127.601 167.194L122.396 178.355ZM113.462 153.807C114.374 151.85 115.586 150.129 117.017 148.671L49.0985 117C46.0165 115.563 42.353 116.896 40.9158 119.978C39.4787 123.06 40.8121 126.724 43.8941 128.161L111.812 159.832C112.009 157.799 112.549 155.764 113.462 153.807ZM85.5316 38.8739L158.078 72.7027L126.851 139.668L54.305 105.839C52.3483 104.927 50.3134 104.387 48.2803 104.19L77.3489 41.8522C78.786 38.7701 82.4496 37.4367 85.5316 38.8739Z" fill="#057EF6"/>
</g>
</svg>
