<svg width="38" height="39" viewBox="0 0 38 39" fill="none" xmlns="http://www.w3.org/2000/svg">
<path fill-rule="evenodd" clip-rule="evenodd" d="M12.6665 10.4376H9.49984V8.85425H6.33317V13.6042H31.6665V8.85425H28.4998V10.4376H25.3332V8.85425H12.6665V10.4376ZM31.6665 16.7709H6.33317V32.6042H31.6665V16.7709ZM25.3332 5.68758H12.6665V4.10425H9.49984V5.68758H6.33317C4.58427 5.68758 3.1665 7.10535 3.1665 8.85425V32.6042C3.1665 34.3531 4.58427 35.7709 6.33317 35.7709H31.6665C33.4154 35.7709 34.8332 34.3531 34.8332 32.6042V8.85425C34.8332 7.10535 33.4154 5.68758 31.6665 5.68758H28.4998V4.10425H25.3332V5.68758ZM11.0832 23.1042V19.9376H14.2498V23.1042H11.0832ZM17.4165 23.1042H20.5832V19.9376H17.4165V23.1042ZM23.7498 23.1042V19.9376H26.9165V23.1042H23.7498ZM11.0832 26.2709V29.4376H14.2498V26.2709H11.0832ZM20.5832 29.4376H17.4165V26.2709H20.5832V29.4376Z" fill="#057EF6"/>
</svg>
