<svg width="38" height="39" viewBox="0 0 38 39" fill="none" xmlns="http://www.w3.org/2000/svg">
<path fill-rule="evenodd" clip-rule="evenodd" d="M28.4998 7.27091C28.4998 9.01982 29.9176 10.4376 31.6665 10.4376C33.4154 10.4376 34.8332 9.01982 34.8332 7.27091C34.8332 5.52201 33.4154 4.10425 31.6665 4.10425C29.9176 4.10425 28.4998 5.52201 28.4998 7.27091ZM31.6665 23.1042C29.9176 23.1042 28.4998 21.6865 28.4998 19.9376C28.4998 18.1887 29.9176 16.7709 31.6665 16.7709C33.4154 16.7709 34.8332 18.1887 34.8332 19.9376C34.8332 21.6865 33.4154 23.1042 31.6665 23.1042ZM31.6665 35.7709C29.9176 35.7709 28.4998 34.3531 28.4998 32.6042C28.4998 30.8553 29.9176 29.4376 31.6665 29.4376C33.4154 29.4376 34.8332 30.8553 34.8332 32.6042C34.8332 34.3531 33.4154 35.7709 31.6665 35.7709ZM18.9998 35.7709C17.2509 35.7709 15.8332 34.3531 15.8332 32.6042C15.8332 30.8553 17.2509 29.4376 18.9998 29.4376C20.7487 29.4376 22.1665 30.8553 22.1665 32.6042C22.1665 34.3531 20.7487 35.7709 18.9998 35.7709ZM15.8332 19.9376C15.8332 21.6865 17.2509 23.1042 18.9998 23.1042C20.7487 23.1042 22.1665 21.6865 22.1665 19.9376C22.1665 18.1887 20.7487 16.7709 18.9998 16.7709C17.2509 16.7709 15.8332 18.1887 15.8332 19.9376ZM18.9998 10.4376C17.2509 10.4376 15.8332 9.01982 15.8332 7.27091C15.8332 5.52201 17.2509 4.10425 18.9998 4.10425C20.7487 4.10425 22.1665 5.52201 22.1665 7.27091C22.1665 9.01982 20.7487 10.4376 18.9998 10.4376ZM3.1665 32.6042C3.1665 34.3531 4.58427 35.7709 6.33317 35.7709C8.08207 35.7709 9.49984 34.3531 9.49984 32.6042C9.49984 30.8553 8.08207 29.4376 6.33317 29.4376C4.58427 29.4376 3.1665 30.8553 3.1665 32.6042ZM6.33317 23.1042C4.58427 23.1042 3.1665 21.6865 3.1665 19.9376C3.1665 18.1887 4.58427 16.7709 6.33317 16.7709C8.08207 16.7709 9.49984 18.1887 9.49984 19.9376C9.49984 21.6865 8.08207 23.1042 6.33317 23.1042ZM3.1665 7.27091C3.1665 9.01982 4.58427 10.4376 6.33317 10.4376C8.08207 10.4376 9.49984 9.01982 9.49984 7.27091C9.49984 5.52201 8.08207 4.10425 6.33317 4.10425C4.58427 4.10425 3.1665 5.52201 3.1665 7.27091Z" fill="#057EF6"/>
</svg>
