<svg width="30" height="31" viewBox="0 0 30 31" fill="none" xmlns="http://www.w3.org/2000/svg">
<rect y="0.9375" width="30" height="30" rx="15" fill="white"/>
<path d="M17.8411 10.2572L16.3673 10.2549C14.7114 10.2549 13.6414 11.3527 13.6414 13.052V14.3416H12.1595C12.0314 14.3416 11.9277 14.4454 11.9277 14.5735V16.442C11.9277 16.5701 12.0315 16.6738 12.1595 16.6738H13.6414V21.3887C13.6414 21.5167 13.7451 21.6204 13.8731 21.6204H15.8066C15.9346 21.6204 16.0383 21.5166 16.0383 21.3887V16.6738H17.771C17.8991 16.6738 18.0028 16.5701 18.0028 16.442L18.0035 14.5735C18.0035 14.512 17.979 14.4531 17.9356 14.4096C17.8922 14.3661 17.8331 14.3416 17.7716 14.3416H16.0383V13.2484C16.0383 12.7229 16.1635 12.4561 16.848 12.4561L17.8409 12.4558C17.9688 12.4558 18.0725 12.352 18.0725 12.224V10.489C18.0725 10.3612 17.9689 10.2575 17.8411 10.2572Z" fill="#2E363E"/>
</svg>
