<svg width="68" height="69" viewBox="0 0 68 69" fill="none" xmlns="http://www.w3.org/2000/svg">
<path d="M0 10.8458C0 5.06807 4.68379 0.384277 10.4615 0.384277H52.3077C58.0854 0.384277 62.7692 5.06807 62.7692 10.8458V52.692C62.7692 58.4697 58.0854 63.1535 52.3077 63.1535H10.4615C4.68379 63.1535 0 58.4697 0 52.692V10.8458Z" fill="#3680FF"/>
<g filter="url(#filter0_biii_108_4345)">
<path d="M5.23071 16.0767C5.23071 10.2989 9.9145 5.61511 15.6923 5.61511H57.5384C63.3162 5.61511 67.9999 10.2989 67.9999 16.0767V57.9228C67.9999 63.7006 63.3162 68.3843 57.5384 68.3843H15.6923C9.91451 68.3843 5.23071 63.7006 5.23071 57.9228V16.0767Z" fill="#3680FF" fill-opacity="0.14"/>
</g>
<path d="M31.7012 54.2654C34.8621 54.2654 37.4121 51.7154 37.4121 48.5544V42.8435H31.7012C28.5402 42.8435 25.9902 45.3935 25.9902 48.5544C25.9902 51.7154 28.5402 54.2654 31.7012 54.2654ZM25.9902 37.1326C25.9902 33.9716 28.5402 31.4216 31.7012 31.4216H37.4121V42.8435H31.7012C28.5402 42.8435 25.9902 40.2935 25.9902 37.1326ZM25.9902 25.7107C25.9902 22.5498 28.5402 19.9998 31.7012 19.9998H37.4121V31.4216H31.7012C28.5402 31.4216 25.9902 28.8716 25.9902 25.7107ZM37.4121 19.9998H43.123C46.284 19.9998 48.834 22.5498 48.834 25.7107C48.834 28.8716 46.284 31.4216 43.123 31.4216H37.4121V19.9998ZM48.834 37.1326C48.834 40.2935 46.284 42.8435 43.123 42.8435C39.9621 42.8435 37.4121 40.2935 37.4121 37.1326C37.4121 33.9716 39.9621 31.4216 43.123 31.4216C46.284 31.4216 48.834 33.9716 48.834 37.1326Z" fill="#F9F9F9"/>
<defs>
<filter id="filter0_biii_108_4345" x="-13.077" y="-12.6926" width="99.3847" height="99.3847" filterUnits="userSpaceOnUse" color-interpolation-filters="sRGB">
<feFlood flood-opacity="0" result="BackgroundImageFix"/>
<feGaussianBlur in="BackgroundImageFix" stdDeviation="9.15385"/>
<feComposite in2="SourceAlpha" operator="in" result="effect1_backgroundBlur_108_4345"/>
<feBlend mode="normal" in="SourceGraphic" in2="effect1_backgroundBlur_108_4345" result="shape"/>
<feColorMatrix in="SourceAlpha" type="matrix" values="0 0 0 0 0 0 0 0 0 0 0 0 0 0 0 0 0 0 127 0" result="hardAlpha"/>
<feOffset dy="3.92308"/>
<feGaussianBlur stdDeviation="1.96154"/>
<feComposite in2="hardAlpha" operator="arithmetic" k2="-1" k3="1"/>
<feColorMatrix type="matrix" values="0 0 0 0 1 0 0 0 0 1 0 0 0 0 1 0 0 0 0.3 0"/>
<feBlend mode="normal" in2="shape" result="effect2_innerShadow_108_4345"/>
<feColorMatrix in="SourceAlpha" type="matrix" values="0 0 0 0 0 0 0 0 0 0 0 0 0 0 0 0 0 0 127 0" result="hardAlpha"/>
<feOffset dy="5.23077"/>
<feGaussianBlur stdDeviation="2.61538"/>
<feComposite in2="hardAlpha" operator="arithmetic" k2="-1" k3="1"/>
<feColorMatrix type="matrix" values="0 0 0 0 1 0 0 0 0 1 0 0 0 0 1 0 0 0 0.25 0"/>
<feBlend mode="normal" in2="effect2_innerShadow_108_4345" result="effect3_innerShadow_108_4345"/>
<feColorMatrix in="SourceAlpha" type="matrix" values="0 0 0 0 0 0 0 0 0 0 0 0 0 0 0 0 0 0 127 0" result="hardAlpha"/>
<feOffset dy="1.30769"/>
<feGaussianBlur stdDeviation="0.653846"/>
<feComposite in2="hardAlpha" operator="arithmetic" k2="-1" k3="1"/>
<feColorMatrix type="matrix" values="0 0 0 0 1 0 0 0 0 1 0 0 0 0 1 0 0 0 0.35 0"/>
<feBlend mode="normal" in2="effect3_innerShadow_108_4345" result="effect4_innerShadow_108_4345"/>
</filter>
</defs>
</svg>
