<svg width="68" height="69" viewBox="0 0 68 69" fill="none" xmlns="http://www.w3.org/2000/svg">
<path d="M0 10.8458C0 5.06807 4.68379 0.384277 10.4615 0.384277H52.3077C58.0854 0.384277 62.7692 5.06807 62.7692 10.8458V52.692C62.7692 58.4697 58.0854 63.1535 52.3077 63.1535H10.4615C4.68379 63.1535 0 58.4697 0 52.692V10.8458Z" fill="#6529CC"/>
<g filter="url(#filter0_biii_108_4562)">
<path d="M5.23071 16.0766C5.23071 10.2988 9.9145 5.61505 15.6923 5.61505H57.5384C63.3162 5.61505 67.9999 10.2988 67.9999 16.0766V57.9227C67.9999 63.7005 63.3162 68.3843 57.5384 68.3843H15.6923C9.91451 68.3843 5.23071 63.7005 5.23071 57.9227V16.0766Z" fill="#9D50FF" fill-opacity="0.14"/>
</g>
<path d="M47.5999 29.5676H24.9332C23.3684 29.5676 22.0999 30.8362 22.0999 32.401V46.5676C22.0999 48.1324 23.3684 49.401 24.9332 49.401H47.5999C49.1647 49.401 50.4332 48.1324 50.4332 46.5676V32.401C50.4332 30.8362 49.1647 29.5676 47.5999 29.5676Z" stroke="white" stroke-width="2.83333" stroke-linecap="round" stroke-linejoin="round"/>
<path d="M41.9332 49.4009V26.7343C41.9332 25.9828 41.6347 25.2622 41.1033 24.7308C40.572 24.1995 39.8513 23.9009 39.0999 23.9009H33.4332C32.6817 23.9009 31.9611 24.1995 31.4297 24.7308C30.8984 25.2622 30.5999 25.9828 30.5999 26.7343V49.4009" stroke="white" stroke-width="2.83333" stroke-linecap="round" stroke-linejoin="round"/>
<defs>
<filter id="filter0_biii_108_4562" x="-13.077" y="-12.6926" width="99.3847" height="99.3846" filterUnits="userSpaceOnUse" color-interpolation-filters="sRGB">
<feFlood flood-opacity="0" result="BackgroundImageFix"/>
<feGaussianBlur in="BackgroundImageFix" stdDeviation="9.15385"/>
<feComposite in2="SourceAlpha" operator="in" result="effect1_backgroundBlur_108_4562"/>
<feBlend mode="normal" in="SourceGraphic" in2="effect1_backgroundBlur_108_4562" result="shape"/>
<feColorMatrix in="SourceAlpha" type="matrix" values="0 0 0 0 0 0 0 0 0 0 0 0 0 0 0 0 0 0 127 0" result="hardAlpha"/>
<feOffset dy="3.92308"/>
<feGaussianBlur stdDeviation="1.96154"/>
<feComposite in2="hardAlpha" operator="arithmetic" k2="-1" k3="1"/>
<feColorMatrix type="matrix" values="0 0 0 0 1 0 0 0 0 1 0 0 0 0 1 0 0 0 0.3 0"/>
<feBlend mode="normal" in2="shape" result="effect2_innerShadow_108_4562"/>
<feColorMatrix in="SourceAlpha" type="matrix" values="0 0 0 0 0 0 0 0 0 0 0 0 0 0 0 0 0 0 127 0" result="hardAlpha"/>
<feOffset dy="5.23077"/>
<feGaussianBlur stdDeviation="2.61538"/>
<feComposite in2="hardAlpha" operator="arithmetic" k2="-1" k3="1"/>
<feColorMatrix type="matrix" values="0 0 0 0 1 0 0 0 0 1 0 0 0 0 1 0 0 0 0.25 0"/>
<feBlend mode="normal" in2="effect2_innerShadow_108_4562" result="effect3_innerShadow_108_4562"/>
<feColorMatrix in="SourceAlpha" type="matrix" values="0 0 0 0 0 0 0 0 0 0 0 0 0 0 0 0 0 0 127 0" result="hardAlpha"/>
<feOffset dy="1.30769"/>
<feGaussianBlur stdDeviation="0.653846"/>
<feComposite in2="hardAlpha" operator="arithmetic" k2="-1" k3="1"/>
<feColorMatrix type="matrix" values="0 0 0 0 1 0 0 0 0 1 0 0 0 0 1 0 0 0 0.35 0"/>
<feBlend mode="normal" in2="effect3_innerShadow_108_4562" result="effect4_innerShadow_108_4562"/>
</filter>
</defs>
</svg>
