<svg width="30" height="31" viewBox="0 0 30 31" fill="none" xmlns="http://www.w3.org/2000/svg">
<rect y="0.9375" width="30" height="30" rx="15" fill="white"/>
<path fill-rule="evenodd" clip-rule="evenodd" d="M9.83268 9.35449H21.166C21.9484 9.35449 22.5827 9.98876 22.5827 10.7712V22.1045C22.5827 22.8869 21.9484 23.5212 21.166 23.5212H9.83268C9.05028 23.5212 8.41602 22.8869 8.41602 22.1045V10.7712C8.41602 9.98876 9.05028 9.35449 9.83268 9.35449ZM9.83268 10.7712V22.1045H21.166V10.7712H9.83268ZM16.208 14.3127C15.8413 14.3127 15.4538 14.4248 15.1116 14.6329L14.7913 14.3127H14.083V19.271H15.4997V16.4377C15.4997 16.0298 15.9204 15.7293 16.208 15.7293H16.9163C17.204 15.7293 17.6247 16.0298 17.6247 16.4377V19.271H19.0413V16.4377C19.0413 15.1252 17.9037 14.3127 16.9163 14.3127H16.208ZM12.6663 13.6043C13.0575 13.6043 13.3747 13.2872 13.3747 12.896C13.3747 12.5048 13.0575 12.1877 12.6663 12.1877C12.2751 12.1877 11.958 12.5048 11.958 12.896C11.958 13.2872 12.2751 13.6043 12.6663 13.6043ZM11.958 14.3127V19.271H13.3747V14.3127H11.958Z" fill="#2E363E"/>
</svg>
