<svg width="38" height="39" viewBox="0 0 38 39" fill="none" xmlns="http://www.w3.org/2000/svg">
<path fill-rule="evenodd" clip-rule="evenodd" d="M3.1665 10.4374C3.1665 12.1863 4.58427 13.6041 6.33317 13.6041C8.08207 13.6041 9.49984 12.1863 9.49984 10.4374C9.49984 8.68852 8.08207 7.27075 6.33317 7.27075C4.58427 7.27075 3.1665 8.68852 3.1665 10.4374ZM12.6665 8.85408H34.8332V12.0208H12.6665V8.85408ZM34.8332 18.3541H12.6665V21.5208H34.8332V18.3541ZM12.6665 31.0208H34.8332V27.8541H12.6665V31.0208ZM3.1665 29.4374C3.1665 31.1863 4.58427 32.6041 6.33317 32.6041C8.08207 32.6041 9.49984 31.1863 9.49984 29.4374C9.49984 27.6885 8.08207 26.2708 6.33317 26.2708C4.58427 26.2708 3.1665 27.6885 3.1665 29.4374ZM6.33317 23.1041C4.58427 23.1041 3.1665 21.6863 3.1665 19.9374C3.1665 18.1885 4.58427 16.7708 6.33317 16.7708C8.08207 16.7708 9.49984 18.1885 9.49984 19.9374C9.49984 21.6863 8.08207 23.1041 6.33317 23.1041Z" fill="#057EF6"/>
</svg>
