<svg width="125" height="65" viewBox="0 0 125 65" fill="none" xmlns="http://www.w3.org/2000/svg">
<path d="M60.7898 36.9158H57.0071L40.9378 17.0249L24.8629 36.9158H21.0747L39.0437 14.692L40.9323 12.3535L42.8264 14.692L60.7898 36.9158Z" fill="#057EF6"/>
<path d="M78.9864 36.8655L78.9253 36.9154H75.2371L53.9131 10.5369L48.192 17.63L46.2979 15.286L52.019 8.20395L53.9131 5.86548L55.8017 8.20395L78.9864 36.8655Z" fill="#057EF6"/>
<path d="M96.2111 36.9156H92.434L66.372 4.67138L61.1063 11.1869L59.2178 8.85396L64.4835 2.33847L66.372 0L68.255 2.34402L96.2111 36.9156Z" fill="#057EF6"/>
<path d="M9.95433 50.8245C8.89897 49.8691 8.44904 49.7025 7.19926 49.7025H3.47215V52.5853H0.900391V42.3816H9.97654C11.7096 42.3816 12.7927 42.7204 13.5092 43.3814C14.1591 43.9869 14.4646 44.8978 14.4646 46.0365C14.4646 47.1752 14.1536 48.0861 13.5092 48.6916C13.0149 49.1526 12.3428 49.4525 11.4152 49.5914C12.0484 49.8303 12.4817 50.1691 13.1315 50.7579L15.1312 52.5853H11.9095L9.96544 50.8301L9.95433 50.8245ZM9.71547 47.6751C10.6597 47.6751 11.1652 47.564 11.4763 47.2418C11.7318 46.9752 11.8429 46.5808 11.8429 46.0309C11.8429 45.481 11.7318 45.1033 11.4763 44.8367C11.1652 44.5145 10.6597 44.4035 9.71547 44.4035H3.46659V47.6751H9.71547Z" fill="#2E363E"/>
<path d="M29.1898 52.5795H17.1753V42.3757H29.1509V44.3976H19.7526V46.3806H26.0848V48.3191H19.7526V50.552H29.1953V52.5739L29.1898 52.5795Z" fill="#2E363E"/>
<path d="M42.021 50.7242H34.2558L33.0337 52.5795H30.1787L37.1163 42.3757H39.2104L46.1869 52.5795H43.2764L42.0266 50.7242H42.021ZM35.6055 48.6857H40.6546L38.1106 44.9031L35.6055 48.6857Z" fill="#2E363E"/>
<path d="M59.2179 52.5795H47.6255V42.3757H50.1973V50.552H59.2179V52.5739V52.5795Z" fill="#2E363E"/>
<path d="M72.9099 44.359H64.3281C63.6227 44.359 63.1061 44.4146 62.8395 44.6701C62.7007 44.7978 62.6284 44.9922 62.6284 45.2311C62.6284 45.8199 63.1061 46.0309 63.9949 46.1031L69.6105 46.5364C71.4102 46.6753 72.4545 46.9141 73.1266 47.5918C73.5654 48.025 73.8431 48.6471 73.8431 49.5303C73.8431 50.4135 73.5765 51.0911 73.0821 51.5688C72.3656 52.2854 71.2547 52.5798 69.3828 52.5798H60.7843V50.5968H69.7327C70.8714 50.5968 71.3491 50.2857 71.3491 49.6414C71.3491 49.0637 71.0103 48.8415 69.9827 48.7582L64.7781 48.3638C63.2894 48.2528 61.9341 48.0528 61.0621 47.2974C60.5566 46.8641 60.1733 46.1587 60.1733 45.2755C60.1733 44.3923 60.4955 43.7702 60.9899 43.3092C61.7064 42.6482 62.9062 42.3816 64.5059 42.3816H72.9044V44.3646L72.9099 44.359Z" fill="#2E363E"/>
<path d="M84.4632 42.209C87.2904 42.209 89.1623 42.6311 90.2732 43.7698C91.0897 44.6141 91.4952 45.8917 91.4952 47.4803C91.4952 49.0689 91.0897 50.3464 90.2732 51.1907C89.1623 52.3294 87.2904 52.7515 84.4354 52.7515H82.4247C79.5974 52.7515 77.7255 52.3294 76.6146 51.1907C75.7981 50.3464 75.3926 49.0689 75.3926 47.4803C75.3926 45.8917 75.7981 44.6141 76.6146 43.7698C77.7255 42.6311 79.5974 42.209 82.4247 42.209H84.4632ZM84.2243 50.513C86.1406 50.513 87.2349 50.3853 87.9237 49.8521C88.5291 49.3744 88.7957 48.6023 88.7957 47.4747C88.7957 46.3471 88.5291 45.575 87.9237 45.0974C87.2349 44.5641 86.1351 44.4364 84.2077 44.4364H82.6746C80.7472 44.4364 79.6474 44.5641 78.9586 45.0974C78.3531 45.575 78.0865 46.3471 78.0865 47.4747C78.0865 48.6023 78.3531 49.3744 78.9586 49.8521C79.6474 50.3853 80.7472 50.513 82.6579 50.513H84.2188H84.2243Z" fill="#2E363E"/>
<path d="M96.1831 52.5795H93.6113V42.3757H105.443V44.3976H96.1831V46.3806H102.376V48.3191H96.1831V52.5795Z" fill="#2E363E"/>
<path d="M106.092 42.3757H119.585V44.3976H114.124V52.5739H111.547V44.3976H106.087V42.3757H106.092Z" fill="#2E363E"/>
<path d="M124.9 39.9372C124.9 41.2425 123.873 42.2701 122.539 42.2701C121.206 42.2701 120.162 41.2425 120.162 39.9372C120.162 38.6319 121.217 37.6321 122.539 37.6321C123.861 37.6321 124.9 38.6597 124.9 39.9372ZM120.751 39.9372C120.751 40.9648 121.512 41.7813 122.551 41.7813C123.589 41.7813 124.306 40.9648 124.306 39.9539C124.306 38.943 123.562 38.0987 122.534 38.0987C121.506 38.0987 120.751 38.9263 120.751 39.9428V39.9372ZM122.173 41.1481H121.64V38.843C121.851 38.7985 122.145 38.7708 122.523 38.7708C122.956 38.7708 123.156 38.843 123.323 38.9374C123.45 39.0374 123.55 39.2207 123.55 39.4429C123.55 39.6984 123.356 39.8928 123.073 39.9761V40.0039C123.295 40.0872 123.423 40.2594 123.495 40.5649C123.567 40.9148 123.606 41.0592 123.661 41.1426H123.084C123.012 41.0592 122.973 40.8482 122.901 40.5815C122.856 40.326 122.717 40.2149 122.423 40.2149H122.167V41.1426L122.173 41.1481ZM122.19 39.8428H122.445C122.739 39.8428 122.978 39.7428 122.978 39.504C122.978 39.2929 122.823 39.154 122.484 39.154C122.345 39.154 122.245 39.1707 122.19 39.1818V39.8428Z" fill="#2E363E"/>
<path d="M33.7285 64.9374H35.3415L31.4764 59.28H30.3153L26.4736 64.9374H28.0555L28.7335 63.9088H33.0349L33.7285 64.9374ZM30.8686 60.6827L32.279 62.7789H29.4815L30.8686 60.6827Z" fill="#2E363E"/>
<path d="M38.9121 62.1087C38.9121 61.5087 39.0602 61.0567 39.3953 60.7918C39.7771 60.4879 40.3771 60.4255 41.4447 60.4255H44.6786V59.28H41.2343C39.707 59.28 38.7407 59.4982 38.1484 60.0904C37.6887 60.5502 37.416 61.2437 37.416 62.1087C37.416 62.9737 37.6887 63.6672 38.1484 64.127C38.7407 64.7192 39.707 64.9374 41.2343 64.9374H44.6786V63.7919H41.4447C40.3771 63.7919 39.7771 63.7295 39.3953 63.4256C39.0602 63.1607 38.9121 62.7087 38.9121 62.1087Z" fill="#2E363E"/>
<path d="M54.4389 64.9374H56.0519L52.1868 59.28H51.0257L47.184 64.9374H48.7659L49.4439 63.9088H53.7453L54.4389 64.9374ZM51.579 60.6827L52.9895 62.7789H50.1919L51.579 60.6827Z" fill="#2E363E"/>
<path d="M58.7207 64.9374H62.8741C64.4015 64.9374 65.3677 64.727 65.96 64.1348C66.4197 63.675 66.7002 62.9737 66.7002 62.1087C66.7002 61.2437 66.4197 60.5424 65.96 60.0827C65.3677 59.4904 64.4015 59.28 62.8741 59.28H58.7207V64.9374ZM65.2041 62.1087C65.2041 62.7087 65.056 63.1607 64.721 63.4256C64.3391 63.7295 63.7391 63.7919 62.6715 63.7919H60.1468V60.4255H62.6715C63.7391 60.4255 64.3391 60.4879 64.721 60.7918C65.056 61.0567 65.2041 61.5087 65.2041 62.1087Z" fill="#2E363E"/>
<path d="M76.3928 63.8153H71.164V62.5763H74.6706V61.5009H71.164V60.4021H76.3694V59.28H69.738V64.9374H76.3928V63.8153Z" fill="#2E363E"/>
<path d="M83.7378 64.7815H84.86L87.5795 61.4074V64.9374H88.9666V59.28H87.6886L84.2989 63.3477L80.8468 59.28H79.5377V64.9374H80.9169V61.4386L83.7378 64.7815Z" fill="#2E363E"/>
<path d="M96.0363 61.9139L93.3869 59.28H91.618L95.3116 62.8957V64.9374H96.7221V62.888L100.424 59.28H98.7014L96.0363 61.9139Z" fill="#2E363E"/>
</svg>
