<svg width="68" height="69" viewBox="0 0 68 69" fill="none" xmlns="http://www.w3.org/2000/svg">
<path d="M0 10.8458C0 5.06807 4.68379 0.384277 10.4615 0.384277H52.3077C58.0854 0.384277 62.7692 5.06807 62.7692 10.8458V52.692C62.7692 58.4697 58.0854 63.1535 52.3077 63.1535H10.4615C4.68379 63.1535 0 58.4697 0 52.692V10.8458Z" fill="#D84379"/>
<g filter="url(#filter0_biii_108_4540)">
<path d="M5.23071 16.0765C5.23071 10.2988 9.9145 5.61499 15.6923 5.61499H57.5384C63.3162 5.61499 67.9999 10.2988 67.9999 16.0765V57.9227C67.9999 63.7004 63.3162 68.3842 57.5384 68.3842H15.6923C9.91451 68.3842 5.23071 63.7004 5.23071 57.9227V16.0765Z" fill="#D84379" fill-opacity="0.14"/>
</g>
<g clip-path="url(#clip0_108_4540)">
<path d="M42.7247 33.9184C40.7325 34.1574 40.7325 36.3621 40.7325 36.3621H44.6903C44.7169 36.3621 44.9028 33.9184 42.7247 33.9184ZM29.7622 36.7605H33.1622L31.4622 30.2793L29.7622 36.7605Z" fill="#F9F9F9"/>
<path d="M19.6155 19.9996V53.9996H53.6155V19.9996H19.6155ZM34.8889 43.534L33.6936 39.2574H29.2311L28.0624 43.534H25.5655L29.8155 28.9512V27.9418H33.0561L37.6514 43.534H34.8889ZM47.1077 38.3278H40.7327C41.2374 43.4278 46.3639 40.984 46.3639 40.984V43.109C46.3639 43.109 46.0186 43.7996 42.4327 43.7996C38.8467 43.7996 38.103 38.9387 38.103 38.9387V37.6903C38.103 37.6903 38.4483 31.8465 42.6983 31.8465C46.9483 31.8465 47.0811 35.7246 47.0811 35.7246V38.3278H47.1077Z" fill="#F9F9F9"/>
</g>
<defs>
<filter id="filter0_biii_108_4540" x="-13.077" y="-12.6927" width="99.3847" height="99.3847" filterUnits="userSpaceOnUse" color-interpolation-filters="sRGB">
<feFlood flood-opacity="0" result="BackgroundImageFix"/>
<feGaussianBlur in="BackgroundImageFix" stdDeviation="9.15385"/>
<feComposite in2="SourceAlpha" operator="in" result="effect1_backgroundBlur_108_4540"/>
<feBlend mode="normal" in="SourceGraphic" in2="effect1_backgroundBlur_108_4540" result="shape"/>
<feColorMatrix in="SourceAlpha" type="matrix" values="0 0 0 0 0 0 0 0 0 0 0 0 0 0 0 0 0 0 127 0" result="hardAlpha"/>
<feOffset dy="3.92308"/>
<feGaussianBlur stdDeviation="1.96154"/>
<feComposite in2="hardAlpha" operator="arithmetic" k2="-1" k3="1"/>
<feColorMatrix type="matrix" values="0 0 0 0 1 0 0 0 0 1 0 0 0 0 1 0 0 0 0.3 0"/>
<feBlend mode="normal" in2="shape" result="effect2_innerShadow_108_4540"/>
<feColorMatrix in="SourceAlpha" type="matrix" values="0 0 0 0 0 0 0 0 0 0 0 0 0 0 0 0 0 0 127 0" result="hardAlpha"/>
<feOffset dy="5.23077"/>
<feGaussianBlur stdDeviation="2.61538"/>
<feComposite in2="hardAlpha" operator="arithmetic" k2="-1" k3="1"/>
<feColorMatrix type="matrix" values="0 0 0 0 1 0 0 0 0 1 0 0 0 0 1 0 0 0 0.25 0"/>
<feBlend mode="normal" in2="effect2_innerShadow_108_4540" result="effect3_innerShadow_108_4540"/>
<feColorMatrix in="SourceAlpha" type="matrix" values="0 0 0 0 0 0 0 0 0 0 0 0 0 0 0 0 0 0 127 0" result="hardAlpha"/>
<feOffset dy="1.30769"/>
<feGaussianBlur stdDeviation="0.653846"/>
<feComposite in2="hardAlpha" operator="arithmetic" k2="-1" k3="1"/>
<feColorMatrix type="matrix" values="0 0 0 0 1 0 0 0 0 1 0 0 0 0 1 0 0 0 0.35 0"/>
<feBlend mode="normal" in2="effect3_innerShadow_108_4540" result="effect4_innerShadow_108_4540"/>
</filter>
<clipPath id="clip0_108_4540">
<rect x="19.6155" y="19.9996" width="34" height="34" rx="5.23077" fill="white"/>
</clipPath>
</defs>
</svg>
