<svg width="68" height="69" viewBox="0 0 68 69" fill="none" xmlns="http://www.w3.org/2000/svg">
<path d="M0 10.8458C0 5.06807 4.68379 0.384277 10.4615 0.384277H52.3077C58.0854 0.384277 62.7692 5.06807 62.7692 10.8458V52.692C62.7692 58.4697 58.0854 63.1535 52.3077 63.1535H10.4615C4.68379 63.1535 0 58.4697 0 52.692V10.8458Z" fill="#FF7E00"/>
<g filter="url(#filter0_biii_108_4534)">
<path d="M5.23071 16.0767C5.23071 10.2989 9.9145 5.61511 15.6923 5.61511H57.5384C63.3162 5.61511 67.9999 10.2989 67.9999 16.0767V57.9228C67.9999 63.7006 63.3162 68.3843 57.5384 68.3843H15.6923C9.91451 68.3843 5.23071 63.7006 5.23071 57.9228V16.0767Z" fill="#FF7E00" fill-opacity="0.14"/>
</g>
<g clip-path="url(#clip0_108_4534)">
<path fill-rule="evenodd" clip-rule="evenodd" d="M32.9621 31.0539C31.984 30.8082 31.0047 30.8871 29.9711 31.048C29.9711 32.8556 29.9674 34.6146 29.981 36.3738C29.9815 36.4639 30.1167 36.6206 30.2044 36.6325C31.3314 36.7847 32.4523 36.797 33.5063 36.2832C34.5967 35.752 35.1522 34.6411 35.0082 33.3369C34.8775 32.1493 34.1744 31.3586 32.9621 31.0539ZM53.3499 36.9898V20.8722C53.3499 20.3155 53.356 20.2653 52.8154 20.2653H20.5396C20.0139 20.2653 19.8811 20.3157 19.8811 20.8459V53.1217C19.8811 53.6578 19.948 53.6586 20.4679 53.6586C31.2403 53.6588 42.0449 53.6562 52.8173 53.6684C53.2351 53.6689 53.3472 53.5576 53.3461 53.148C53.3318 47.762 53.3499 42.3754 53.3499 36.9898ZM34.584 38.5411C33.1079 39.0675 31.5686 39.097 29.9749 38.9735V44.9684H27.053V44.596C27.053 39.577 27.0299 34.5585 27.0158 29.5398C27.0142 29.1231 27.0803 28.9217 27.55 28.8739C29.7632 28.6476 31.9639 28.3931 34.1646 28.9092C36.5302 29.4636 37.8942 31.0276 37.9978 33.1884C38.1261 35.8644 36.9502 37.6972 34.584 38.5411ZM46.3538 41.9288C46.2412 43.4618 45.3769 44.4682 43.9592 44.9548C42.0621 45.6061 40.1754 45.455 38.3213 44.7182C38.0177 44.5973 37.959 44.4443 38.0592 44.1349C38.2416 43.5701 38.3752 42.9895 38.516 42.4651C39.2999 42.6952 40.0452 42.9823 40.8174 43.118C41.3627 43.2139 41.9522 43.1576 42.5065 43.0708C43.0035 42.9927 43.361 42.6553 43.4426 42.1219C43.5254 41.5798 43.3621 41.1102 42.8834 40.8217C42.5031 40.5927 42.0839 40.4289 41.682 40.2368C41.0357 39.9279 40.347 39.6856 39.7509 39.2991C37.4052 37.7779 38.1689 34.9474 39.7342 33.8815C40.5717 33.3114 41.4985 33.0586 42.4906 33.0238C43.6575 32.9829 44.7811 33.1842 45.8847 33.7205L45.3017 35.7894C44.8395 35.6258 44.4092 35.4133 43.955 35.3289C43.416 35.2284 42.8508 35.1724 42.3068 35.2168C41.5774 35.2765 41.1502 35.7799 41.1502 36.4041C41.1502 36.7739 41.2905 37.0868 41.5989 37.2661C42.0414 37.5234 42.511 37.7357 42.9764 37.9511C43.48 38.1841 44.0118 38.3631 44.4966 38.629C45.7902 39.3382 46.4635 40.4352 46.3538 41.9288Z" fill="#F9F9F9"/>
</g>
<defs>
<filter id="filter0_biii_108_4534" x="-13.077" y="-12.6926" width="99.3847" height="99.3847" filterUnits="userSpaceOnUse" color-interpolation-filters="sRGB">
<feFlood flood-opacity="0" result="BackgroundImageFix"/>
<feGaussianBlur in="BackgroundImageFix" stdDeviation="9.15385"/>
<feComposite in2="SourceAlpha" operator="in" result="effect1_backgroundBlur_108_4534"/>
<feBlend mode="normal" in="SourceGraphic" in2="effect1_backgroundBlur_108_4534" result="shape"/>
<feColorMatrix in="SourceAlpha" type="matrix" values="0 0 0 0 0 0 0 0 0 0 0 0 0 0 0 0 0 0 127 0" result="hardAlpha"/>
<feOffset dy="3.92308"/>
<feGaussianBlur stdDeviation="1.96154"/>
<feComposite in2="hardAlpha" operator="arithmetic" k2="-1" k3="1"/>
<feColorMatrix type="matrix" values="0 0 0 0 1 0 0 0 0 1 0 0 0 0 1 0 0 0 0.3 0"/>
<feBlend mode="normal" in2="shape" result="effect2_innerShadow_108_4534"/>
<feColorMatrix in="SourceAlpha" type="matrix" values="0 0 0 0 0 0 0 0 0 0 0 0 0 0 0 0 0 0 127 0" result="hardAlpha"/>
<feOffset dy="5.23077"/>
<feGaussianBlur stdDeviation="2.61538"/>
<feComposite in2="hardAlpha" operator="arithmetic" k2="-1" k3="1"/>
<feColorMatrix type="matrix" values="0 0 0 0 1 0 0 0 0 1 0 0 0 0 1 0 0 0 0.25 0"/>
<feBlend mode="normal" in2="effect2_innerShadow_108_4534" result="effect3_innerShadow_108_4534"/>
<feColorMatrix in="SourceAlpha" type="matrix" values="0 0 0 0 0 0 0 0 0 0 0 0 0 0 0 0 0 0 127 0" result="hardAlpha"/>
<feOffset dy="1.30769"/>
<feGaussianBlur stdDeviation="0.653846"/>
<feComposite in2="hardAlpha" operator="arithmetic" k2="-1" k3="1"/>
<feColorMatrix type="matrix" values="0 0 0 0 1 0 0 0 0 1 0 0 0 0 1 0 0 0 0.35 0"/>
<feBlend mode="normal" in2="effect3_innerShadow_108_4534" result="effect4_innerShadow_108_4534"/>
</filter>
<clipPath id="clip0_108_4534">
<rect x="19.6155" y="19.9996" width="34" height="34" rx="5.23077" fill="white"/>
</clipPath>
</defs>
</svg>
