<svg width="30" height="31" viewBox="0 0 30 31" fill="none" xmlns="http://www.w3.org/2000/svg">
<rect y="0.9375" width="30" height="30" rx="15" fill="white"/>
<path d="M7.80723 15.7664C7.80723 15.7664 13.6307 13.3323 15.6504 12.4752C16.4246 12.1324 19.0502 11.0354 19.0502 11.0354C19.0502 11.0354 20.262 10.5554 20.161 11.721C20.1274 12.201 19.8581 13.8808 19.5888 15.6978C19.1848 18.269 18.7472 21.0801 18.7472 21.0801C18.7472 21.0801 18.6799 21.8686 18.1077 22.0057C17.5354 22.1429 16.5929 21.5258 16.4246 21.3887C16.2899 21.2858 13.9 19.7431 13.0248 18.9889C12.7891 18.7832 12.5198 18.3718 13.0584 17.8919C14.2702 16.7605 15.7177 15.355 16.5929 14.4636C16.9968 14.0522 17.4008 13.0923 15.7177 14.2579C13.3277 15.9378 10.9714 17.5148 10.9714 17.5148C10.9714 17.5148 10.4328 17.8576 9.42299 17.549C8.41314 17.2405 7.23499 16.8291 7.23499 16.8291C7.23499 16.8291 6.42711 16.3149 7.80723 15.7664Z" fill="#2E363E"/>
</svg>
