<svg width="30" height="30" viewBox="0 0 30 30" fill="none" xmlns="http://www.w3.org/2000/svg">
<rect width="30" height="30" rx="15" fill="white"/>
<path d="M21.6862 11.6446C21.5255 11.0469 21.0543 10.5758 20.4567 10.4149C19.3651 10.1162 14.9984 10.1162 14.9984 10.1162C14.9984 10.1162 10.6319 10.1162 9.54022 10.4036C8.95416 10.5643 8.47147 11.047 8.31072 11.6446C8.02344 12.7361 8.02344 14.9999 8.02344 14.9999C8.02344 14.9999 8.02344 17.2751 8.31072 18.3552C8.47164 18.9528 8.94267 19.4239 9.5403 19.5848C10.6434 19.8836 14.9985 19.8836 14.9985 19.8836C14.9985 19.8836 19.3651 19.8836 20.4567 19.5962C21.0543 19.4354 21.5255 18.9643 21.6864 18.3667C21.9736 17.2751 21.9736 15.0114 21.9736 15.0114C21.9736 15.0114 21.9851 12.7361 21.6862 11.6446ZM13.6081 17.0912V12.9086L17.2392 14.9999L13.6081 17.0912Z" fill="#2E363E"/>
</svg>
