<svg width="182" height="97" viewBox="0 0 182 97" fill="none" xmlns="http://www.w3.org/2000/svg">
<path d="M87.9019 55.1204H82.3499L58.7643 25.9257L35.1705 55.1204H29.6104L55.9842 22.5016L58.7561 19.0693L61.5362 22.5016L87.9019 55.1204Z" fill="#057EF6"/>
<path d="M114.61 55.0464L114.521 55.1197H109.107L77.8091 16.4028L69.4119 26.8137L66.6318 23.3733L75.0291 12.9787L77.8091 9.54639L80.581 12.9787L114.61 55.0464Z" fill="#057EF6"/>
<path d="M139.891 55.1201H134.348L96.0953 7.79388L88.3666 17.3569L85.5947 13.9328L93.3234 4.36977L96.0953 0.9375L98.8591 4.37792L139.891 55.1201Z" fill="#057EF6"/>
<path d="M13.2889 75.5346C11.7398 74.1324 11.0795 73.8878 9.24511 73.8878H3.77469V78.119H0V63.1426H13.3214C15.8651 63.1426 17.4549 63.6399 18.5065 64.6101C19.4604 65.4987 19.9088 66.8357 19.9088 68.507C19.9088 70.1783 19.4523 71.5154 18.5065 72.404C17.781 73.0807 16.7945 73.5209 15.433 73.7247C16.3624 74.0753 16.9983 74.5726 17.9522 75.4368L20.8871 78.119H16.1586L13.3051 75.5428L13.2889 75.5346ZM12.9383 70.9121C14.3242 70.9121 15.0661 70.749 15.5227 70.2762C15.8977 69.8848 16.0608 69.306 16.0608 68.4989C16.0608 67.6918 15.8977 67.1374 15.5227 66.7461C15.0661 66.2732 14.3242 66.1101 12.9383 66.1101H3.76653V70.9121H12.9383Z" fill="white"/>
<path d="M41.5214 78.1107H23.8872V63.1343H41.4643V66.1018H27.67V69.0123H36.9641V71.8576H27.67V75.135H41.5295V78.1026L41.5214 78.1107Z" fill="white"/>
<path d="M60.3541 75.3877H48.9567L47.1631 78.1107H42.9727L53.1553 63.1343H56.2289L66.4686 78.1107H62.1966L60.3623 75.3877H60.3541ZM50.9378 72.3957H58.3486L54.6147 66.8437L50.9378 72.3957Z" fill="white"/>
<path d="M85.5947 78.1107H68.5801V63.1343H72.3548V75.135H85.5947V78.1026V78.1107Z" fill="white"/>
<path d="M105.691 66.0449H93.0952C92.0599 66.0449 91.3017 66.1264 90.9103 66.5015C90.7065 66.689 90.6005 66.9743 90.6005 67.3249C90.6005 68.1891 91.3017 68.4989 92.6061 68.6049L100.848 69.2408C103.49 69.4446 105.023 69.7951 106.009 70.7898C106.653 71.4257 107.061 72.3388 107.061 73.635C107.061 74.9313 106.669 75.9259 105.944 76.6271C104.892 77.6788 103.262 78.1109 100.514 78.1109H87.8938V75.2004H101.028C102.699 75.2004 103.4 74.7438 103.4 73.7981C103.4 72.9502 102.903 72.6241 101.395 72.5018L93.7556 71.923C91.5707 71.7599 89.5814 71.4664 88.3015 70.3577C87.5596 69.7218 86.9971 68.6864 86.9971 67.3901C86.9971 66.0938 87.4699 65.1807 88.1955 64.5041C89.2472 63.5339 91.0082 63.1426 93.3561 63.1426H105.683V66.0531L105.691 66.0449Z" fill="white"/>
<path d="M122.649 62.8892C126.798 62.8892 129.546 63.5088 131.176 65.1801C132.375 66.4193 132.97 68.2944 132.97 70.626C132.97 72.9577 132.375 74.8328 131.176 76.072C129.546 77.7433 126.798 78.3629 122.608 78.3629H119.657C115.507 78.3629 112.76 77.7433 111.129 76.072C109.931 74.8328 109.335 72.9577 109.335 70.626C109.335 68.2944 109.931 66.4193 111.129 65.1801C112.76 63.5088 115.507 62.8892 119.657 62.8892H122.649ZM122.298 75.0774C125.111 75.0774 126.717 74.8899 127.728 74.1072C128.616 73.4061 129.008 72.2729 129.008 70.6179C129.008 68.9629 128.616 67.8297 127.728 67.1285C126.717 66.3459 125.103 66.1584 122.274 66.1584H120.024C117.195 66.1584 115.58 66.3459 114.569 67.1285C113.681 67.8297 113.289 68.9629 113.289 70.6179C113.289 72.2729 113.681 73.4061 114.569 74.1072C115.58 74.8899 117.195 75.0774 119.999 75.0774H122.29H122.298Z" fill="white"/>
<path d="M139.85 78.1107H136.076V63.1343H153.441V66.1018H139.85V69.0123H148.941V71.8576H139.85V78.1107Z" fill="white"/>
<path d="M154.395 63.1343H174.198V66.1018H166.184V78.1026H162.401V66.1018H154.387V63.1343H154.395Z" fill="white"/>
<path d="M182 59.5547C182 61.4706 180.492 62.9789 178.535 62.9789C176.579 62.9789 175.046 61.4706 175.046 59.5547C175.046 57.6389 176.595 56.1714 178.535 56.1714C180.476 56.1714 182 57.6796 182 59.5547ZM175.91 59.5547C175.91 61.063 177.027 62.2614 178.552 62.2614C180.076 62.2614 181.128 61.063 181.128 59.5792C181.128 58.0954 180.035 56.8562 178.527 56.8562C177.019 56.8562 175.91 58.071 175.91 59.5629V59.5547ZM177.997 61.332H177.215V57.9487C177.524 57.8834 177.956 57.8427 178.511 57.8427C179.147 57.8427 179.44 57.9487 179.685 58.0873C179.872 58.234 180.019 58.503 180.019 58.8292C180.019 59.2042 179.734 59.4895 179.318 59.6118V59.6526C179.644 59.7749 179.832 60.0276 179.937 60.476C180.043 60.9896 180.101 61.2016 180.182 61.3239H179.334C179.228 61.2016 179.171 60.8918 179.065 60.5004C179 60.1254 178.796 59.9624 178.364 59.9624H177.989V61.3239L177.997 61.332ZM178.022 59.4161H178.397C178.829 59.4161 179.179 59.2694 179.179 58.9188C179.179 58.609 178.951 58.4052 178.454 58.4052C178.25 58.4052 178.103 58.4297 178.022 58.446V59.4161Z" fill="white"/>
<path d="M48.1834 96.2493H50.5509L44.878 87.9458H43.1738L37.5352 96.2493H39.8569L40.852 94.7396H47.1654L48.1834 96.2493ZM43.9858 90.0045L46.056 93.0812H41.95L43.9858 90.0045Z" fill="white"/>
<path d="M55.7916 92.0976C55.7916 91.2169 56.0089 90.5535 56.5008 90.1647C57.0612 89.7186 57.9419 89.6271 59.5088 89.6271H64.2553V87.9458H59.2C56.9583 87.9458 55.54 88.266 54.6708 89.1353C53.996 89.8101 53.5957 90.828 53.5957 92.0976C53.5957 93.3671 53.996 94.385 54.6708 95.0599C55.54 95.9291 56.9583 96.2493 59.2 96.2493H64.2553V94.568H59.5088C57.9419 94.568 57.0612 94.4765 56.5008 94.0305C56.0089 93.6416 55.7916 92.9782 55.7916 92.0976Z" fill="white"/>
<path d="M78.5809 96.2493H80.9484L75.2755 87.9458H73.5713L67.9327 96.2493H70.2545L71.2495 94.7396H77.563L78.5809 96.2493ZM74.3834 90.0045L76.4535 93.0812H72.3475L74.3834 90.0045Z" fill="white"/>
<path d="M84.8656 96.2493H90.9617C93.2034 96.2493 94.6217 95.9405 95.4909 95.0713C96.1657 94.3965 96.5774 93.3671 96.5774 92.0976C96.5774 90.828 96.1657 89.7987 95.4909 89.1239C94.6217 88.2546 93.2034 87.9458 90.9617 87.9458H84.8656V96.2493ZM94.3815 92.0976C94.3815 92.9782 94.1642 93.6416 93.6724 94.0305C93.1119 94.4765 92.2312 94.568 90.6643 94.568H86.9586V89.6271H90.6643C92.2312 89.6271 93.1119 89.7186 93.6724 90.1647C94.1642 90.5535 94.3815 91.2169 94.3815 92.0976Z" fill="white"/>
<path d="M110.804 94.6024H103.129V92.7838H108.276V91.2055H103.129V89.5928H110.769V87.9458H101.036V96.2493H110.804V94.6024Z" fill="white"/>
<path d="M121.584 96.0206H123.231L127.223 91.0682V96.2493H129.259V87.9458H127.383L122.408 93.9161L117.341 87.9458H115.419V96.2493H117.444V91.114L121.584 96.0206Z" fill="white"/>
<path d="M139.635 91.8116L135.747 87.9458H133.15L138.572 93.2527V96.2493H140.642V93.2413L146.075 87.9458H143.547L139.635 91.8116Z" fill="white"/>
</svg>
